<svg xmlns="http://www.w3.org/2000/svg" width="893.974" height="181.136" viewBox="0 0 893.974 181.136">
  <g id="Logo" transform="translate(0)">
    <g id="Icon" transform="translate(0 0)">
      <g id="Letter" transform="translate(183.227 181.136) rotate(180)">
        <path id="Path_1" data-name="Path 1" d="M0,0V24.855L42.582,67.837H68.229Z" transform="translate(0 24.457)"/>
        <path id="Path_3" data-name="Path 3" d="M68.229,67.837V42.982L25.647,0H0Z" transform="translate(114.998 86.751)"/>
        <path id="Path_4" data-name="Path 4" d="M68.229,0V24.855L25.647,67.837,68.229,110.43V136.4L0,67.837Z" transform="translate(160.86 112.907) rotate(90)"/>
        <path id="Path_5" data-name="Path 5" d="M68.229,136.4V111.548L25.647,68.566,68.229,25.973V0L0,68.566Z" transform="translate(20.276 68.229) rotate(-90)"/>
      </g>
      <circle id="Ellipse" cx="11.585" cy="11.585" r="11.585" transform="translate(80.371 81.255)" fill="#e6007a"/>
    </g>
    <g id="Name" transform="translate(241.038 15.375)">
      <path id="dot" d="M296.31-12.432a12.126,12.126,0,0,1,10.031,4.5q3.6,4.5,2.315,10.931a18.933,18.933,0,0,1-6.944,10.931,18.73,18.73,0,0,1-11.831,4.244q-6.43,0-9.9-4.244T278.049,3a18.967,18.967,0,0,1,6.558-10.931A17.6,17.6,0,0,1,296.31-12.432Z" transform="translate(343.943 109.749)" fill="#e6007a"/>
      <path id="x" d="M292.619,4.313,306.507,28.9a5.079,5.079,0,0,1,1.032,2.534,7.178,7.178,0,0,1-.282,2.534,10.806,10.806,0,0,1-3.941,6.006,10.257,10.257,0,0,1-6.569,2.628,6.409,6.409,0,0,1-3.191-.845,6.74,6.74,0,0,1-2.44-2.346l-12.2-21.021L258.273,39.41a8.64,8.64,0,0,1-3.66,2.534,11.179,11.179,0,0,1-3.472.657,6.4,6.4,0,0,1-5.255-2.628,6.856,6.856,0,0,1-1.314-6.006,22.224,22.224,0,0,1,.845-2.44,8.883,8.883,0,0,1,1.971-2.628L271.411,4.5,258.836-17.646a8.731,8.731,0,0,1-.375-5.067,10.422,10.422,0,0,1,3.941-6.1,10.471,10.471,0,0,1,6.569-2.534,6.6,6.6,0,0,1,3.1.845,6.538,6.538,0,0,1,2.534,2.346l10.51,18.581L303.5-28.156a10.982,10.982,0,0,1,3.472-2.346,9.01,9.01,0,0,1,3.472-.845,6.757,6.757,0,0,1,5.537,2.721,6.943,6.943,0,0,1,1.408,6.1,10.4,10.4,0,0,1-3,4.88Z" transform="translate(300.213 84.837)"/>
      <path id="e" d="M242.764,42.814a30.291,30.291,0,0,1-13.7-2.909,24.825,24.825,0,0,1-9.384-7.977A28.33,28.33,0,0,1,214.987,20.1,36.92,36.92,0,0,1,215.55,5.84a50.619,50.619,0,0,1,5.63-14.733,46.7,46.7,0,0,1,9.572-11.824A44.157,44.157,0,0,1,243.609-28.6a41.067,41.067,0,0,1,15.484-2.909,34.757,34.757,0,0,1,13.138,2.158,22.324,22.324,0,0,1,8.352,5.63,16.258,16.258,0,0,1,3.941,7.883,22.525,22.525,0,0,1-.094,8.915,27.026,27.026,0,0,1-3.566,8.54,31.167,31.167,0,0,1-6.569,7.507A31.223,31.223,0,0,1,265,14.38a33.131,33.131,0,0,1-11.543,1.971,43.439,43.439,0,0,1-4.786-.282,17.081,17.081,0,0,1-4.6-1.126,6.63,6.63,0,0,1-3.191-2.628,6.957,6.957,0,0,1-.563-4.974,12.082,12.082,0,0,1,3.566-5.912,9.155,9.155,0,0,1,6.569-2.721,7.889,7.889,0,0,1,3.566.751,10.146,10.146,0,0,0,4.129.751,8.573,8.573,0,0,0,6.194-2.346,8.678,8.678,0,0,0,2.815-4.411,6.071,6.071,0,0,0-1.877-5.537q-2.44-2.534-9.572-2.534a20.549,20.549,0,0,0-14.827,6.006,28.247,28.247,0,0,0-8.07,14.452q-1.877,8.446,1.6,14.264t11.542,5.818a25.253,25.253,0,0,0,8.54-1.314,29.564,29.564,0,0,0,7.977-4.692,10.257,10.257,0,0,1,6.569-2.628,6.691,6.691,0,0,1,5.255,2.346,6.451,6.451,0,0,1,1.314,5.912,11.782,11.782,0,0,1-1.314,3.1,15.578,15.578,0,0,1-2.44,3.1,35.955,35.955,0,0,1-13.889,8.54A48.4,48.4,0,0,1,242.764,42.814Z" transform="translate(260.918 84.623)"/>
      <path id="d" d="M243.313,50.107q-.375,1.5-.751,3.1a18.473,18.473,0,0,1-.751,2.534,13.809,13.809,0,0,1,3.848-2.346,10.012,10.012,0,0,1,3.472-.657,6.373,6.373,0,0,1,5.067,2.158,6,6,0,0,1,1.126,5.537,17.193,17.193,0,0,1-3,5.818,20.06,20.06,0,0,1-7.789,5.349A22.666,22.666,0,0,1,237.12,73q-6.006,0-9.29-2.815t-3.66-8.446a43.147,43.147,0,0,1-11.261,8.164A29.385,29.385,0,0,1,199.583,73a24.7,24.7,0,0,1-11.824-2.534,16.908,16.908,0,0,1-7.038-6.85A23.91,23.91,0,0,1,178,53.673a40.629,40.629,0,0,1,1.126-12.012,56.731,56.731,0,0,1,5.537-15.2,64.442,64.442,0,0,1,9.76-13.889A47.671,47.671,0,0,1,207.56,2.53a33.555,33.555,0,0,1,15.672-3.848q8.258,0,12.2,6.381l10.886-51.05a10.037,10.037,0,0,1,4.035-6.287,11.159,11.159,0,0,1,6.475-2.158,7.816,7.816,0,0,1,5.631,2.158q2.252,2.158,1.314,6.287ZM219.665,15.574a14.889,14.889,0,0,0-8.352,2.534,30.319,30.319,0,0,0-6.944,6.381,39.547,39.547,0,0,0-5.161,8.352,36.479,36.479,0,0,0-2.815,8.633,27.739,27.739,0,0,0-.563,5.443,11.221,11.221,0,0,0,.938,4.692,7.571,7.571,0,0,0,2.815,3.284,9.2,9.2,0,0,0,5.067,1.22,15.923,15.923,0,0,0,8.07-2.158,26.14,26.14,0,0,0,6.757-5.63,35.62,35.62,0,0,0,5.067-7.7,37.6,37.6,0,0,0,3-8.54,20.4,20.4,0,0,0-.282-11.543Q225.484,15.574,219.665,15.574Z" transform="translate(212.697 54.432)"/>
      <path id="a" d="M205.447,19.728q-.375,1.689-.845,3.472a14.517,14.517,0,0,1-.845,2.534l.938-.751a10.707,10.707,0,0,1,6.569-2.44,6.373,6.373,0,0,1,5.067,2.158,6,6,0,0,1,1.126,5.537,14.175,14.175,0,0,1-3.191,5.818,25.211,25.211,0,0,1-7.6,5.161,19.321,19.321,0,0,1-7.414,1.6q-10.7,0-12.387-9.572a42.432,42.432,0,0,1-10.7,6.944,29.748,29.748,0,0,1-12.387,2.628q-7.132,0-11.73-2.534a17.674,17.674,0,0,1-7.038-6.85,23.062,23.062,0,0,1-2.815-9.947,40.629,40.629,0,0,1,1.126-12.012,58.583,58.583,0,0,1,5.443-15.2,60.356,60.356,0,0,1,9.759-13.889,49.043,49.043,0,0,1,13.232-10.041,33.934,33.934,0,0,1,15.859-3.848,17.244,17.244,0,0,1,11.824,4.129,10.975,10.975,0,0,1,3.941-3.1,10.731,10.731,0,0,1,4.5-1.032,7.264,7.264,0,0,1,5.349,2.158q2.158,2.158,1.22,6.475Zm-21.4-34.346a14.89,14.89,0,0,0-8.352,2.534A30.319,30.319,0,0,0,168.755-5.7a39.546,39.546,0,0,0-5.161,8.352,36.479,36.479,0,0,0-2.815,8.633,27.739,27.739,0,0,0-.563,5.443,11.221,11.221,0,0,0,.938,4.692,7.571,7.571,0,0,0,2.815,3.284,8.815,8.815,0,0,0,4.88,1.22,16.66,16.66,0,0,0,7.977-2.065,24.822,24.822,0,0,0,6.85-5.443,35.211,35.211,0,0,0,5.161-7.7,36.168,36.168,0,0,0,3.1-8.821,20.4,20.4,0,0,0-.281-11.543Q189.869-14.618,184.051-14.618Z" transform="translate(165.543 84.623)"/>
      <path id="k" d="M142.327,55.264a54.145,54.145,0,0,1-3.191-7.507,16.271,16.271,0,0,1-.563-8.821,11.24,11.24,0,0,1,4.223-6.287,65.608,65.608,0,0,1,7.977-5.161,23.806,23.806,0,0,0,6.475-5.255,13.666,13.666,0,0,0,3.1-5.443q.563-2.815-4.317-2.815a20.082,20.082,0,0,0-7.507,1.5,21.664,21.664,0,0,0-7.038,4.692,35.468,35.468,0,0,0-6.006,7.977A37.9,37.9,0,0,0,131.441,39.5l-4.88,23.46a9.538,9.538,0,0,1-4.223,6.381,12.4,12.4,0,0,1-6.663,2.065,7.438,7.438,0,0,1-5.349-2.065q-2.158-2.065-1.22-6.381l20.082-94.592a44.882,44.882,0,0,1,3.378-10.979,20.3,20.3,0,0,1,4.786-6.569,14.657,14.657,0,0,1,6.287-3.191,36.067,36.067,0,0,1,8.258-.845h1.689a5.577,5.577,0,0,1,5.161,2.628,8.128,8.128,0,0,1,1.032,5.818,12.429,12.429,0,0,1-3.472,5.724,8.634,8.634,0,0,1-6.287,2.721h-1.689q-.563,0-.845,1.126t-.657,2.815L138.2,7.592A49.069,49.069,0,0,1,150.022-.1,27.883,27.883,0,0,1,161.47-2.918q8.446,0,13.513,5.067t3.191,13.325A30.9,30.9,0,0,1,170.2,30.114a39.136,39.136,0,0,1-14.358,9.947q.563.938,1.689,3.284t2.346,4.786a28.95,28.95,0,0,0,2.534,4.223q1.314,1.783,2.44,1.783a28.581,28.581,0,0,1,3.378-2.158,8.064,8.064,0,0,1,3.941-1.032,6.66,6.66,0,0,1,5.161,2.158q1.971,2.158,1.032,5.724a10.368,10.368,0,0,1-2.815,5.349,24.094,24.094,0,0,1-4.88,3.941,24.717,24.717,0,0,1-5.255,2.44,14.77,14.77,0,0,1-4.317.845A14.965,14.965,0,0,1,154.338,70a17.959,17.959,0,0,1-4.974-3.66,27.039,27.039,0,0,1-3.848-5.161Q143.828,58.267,142.327,55.264Z" transform="translate(121.684 56.032)"/>
      <path id="l" d="M129.8-36.381q-.563,0-.845,1.126l-.657,2.628L111.032,48.827q-.375,1.5-.751,3.1a18.467,18.467,0,0,1-.751,2.534,10.475,10.475,0,0,1,3.66-2.534,10.012,10.012,0,0,1,3.472-.657,6.957,6.957,0,0,1,5.255,2.158q2.065,2.158,1.126,5.724a10.888,10.888,0,0,1-2.815,5.443,18.812,18.812,0,0,1-7.789,5.724,23.6,23.6,0,0,1-7.789,1.408q-7.7,0-10.886-4.6T92.639,52.018l18.018-84.082a43.178,43.178,0,0,1,3.378-10.886,20.527,20.527,0,0,1,4.786-6.475,14.657,14.657,0,0,1,6.381-3.191,37.319,37.319,0,0,1,8.352-.845h1.5a5.853,5.853,0,0,1,5.161,2.628,7.056,7.056,0,0,1,1.032,5.818,10.893,10.893,0,0,1-3.566,5.818,9.233,9.233,0,0,1-6.381,2.815Z" transform="translate(99.301 55.712)"/>
      <path id="o" d="M55.993,5.84A44.294,44.294,0,0,1,62-8.612a50.969,50.969,0,0,1,23.93-19.894,39.916,39.916,0,0,1,15.109-3,31.862,31.862,0,0,1,14.076,3,28.176,28.176,0,0,1,10.135,8.07,29.341,29.341,0,0,1,5.443,11.824A33.223,33.223,0,0,1,130.5,5.84,43.262,43.262,0,0,1,124.5,20.2a51.731,51.731,0,0,1-10.416,11.73A49.045,49.045,0,0,1,100.568,39.9a41.521,41.521,0,0,1-15.3,2.909A32.274,32.274,0,0,1,71.383,39.9a27.3,27.3,0,0,1-10.135-7.977A29.337,29.337,0,0,1,55.806,20.2,32.8,32.8,0,0,1,55.993,5.84Zm57.056,0a18.7,18.7,0,0,0,.188-7.883,15.683,15.683,0,0,0-2.909-6.569,15.017,15.017,0,0,0-5.443-4.411,16.75,16.75,0,0,0-7.413-1.6,21.329,21.329,0,0,0-8.07,1.6,26.071,26.071,0,0,0-7.226,4.411,28.449,28.449,0,0,0-5.631,6.569A25.433,25.433,0,0,0,73.26,5.84Q71.383,14.286,75.888,20.1t12.95,5.818a21.329,21.329,0,0,0,8.07-1.6,27.336,27.336,0,0,0,7.226-4.317,27.5,27.5,0,0,0,5.63-6.381A24.335,24.335,0,0,0,113.049,5.84Z" transform="translate(50.926 84.623)"/>
      <path id="p" d="M48.695,32.619H41.938q-4.317,0-6.194-2.628a7.066,7.066,0,0,1-.938-6.194,10.648,10.648,0,0,1,3.472-5.912A10.172,10.172,0,0,1,45.5,15.165H52.26L59.2-16.741a10.246,10.246,0,0,1,4.223-6.569,11.941,11.941,0,0,1,6.85-2.252A8.109,8.109,0,0,1,75.815-23.5q2.346,2.065,1.408,6.757L70.278,15.165h6.757a20.865,20.865,0,0,0,9.29-2.065,28.927,28.927,0,0,0,7.507-5.255A28.605,28.605,0,0,0,99.275.526a33.583,33.583,0,0,0,3.1-8.446,32.167,32.167,0,0,0,.469-8.07,17.769,17.769,0,0,0-1.971-7.132,13.316,13.316,0,0,0-4.88-5.161,15.123,15.123,0,0,0-8.07-1.971H52.073a38.7,38.7,0,0,0-7.413.751,25.631,25.631,0,0,0-7.32,2.628,21.355,21.355,0,0,0-6.006,4.786,15.93,15.93,0,0,0-3.472,7.226A11.278,11.278,0,0,0,28.8-6.982,50.757,50.757,0,0,0,32.741-.6a7.328,7.328,0,0,1,1.877,6.944,11.339,11.339,0,0,1-3.66,6.006A9.655,9.655,0,0,1,24.3,14.977a9.2,9.2,0,0,1-5.818-2.065A28.821,28.821,0,0,1,10.783.9a30.162,30.162,0,0,1-.751-15.765,35.879,35.879,0,0,1,6.194-13.982A43.4,43.4,0,0,1,27.017-39.169a48.707,48.707,0,0,1,13.795-6.381,54.114,54.114,0,0,1,15.015-2.158H90.548q9.76,0,16.235,3.566a25.974,25.974,0,0,1,9.947,9.29A29.686,29.686,0,0,1,120.859-22a49.14,49.14,0,0,1-.845,14.452,56.687,56.687,0,0,1-5.63,14.733,52.076,52.076,0,0,1-9.853,12.856,47.661,47.661,0,0,1-13.795,9.1,42.361,42.361,0,0,1-17.267,3.472H66.712L64.835,41.44a44.555,44.555,0,0,1-3.1,8.821,25.9,25.9,0,0,1-5.067,7.226,22.272,22.272,0,0,1-7.507,4.88A27.709,27.709,0,0,1,38.747,64.15a32.678,32.678,0,0,1-8.54-1.314,11.763,11.763,0,0,1-7.413-6.381,7.73,7.73,0,0,1-1.126-5.63A10.969,10.969,0,0,1,25.8,44.631a11.192,11.192,0,0,1,6.944-2.44,7.874,7.874,0,0,1,6.006,2.628A4.132,4.132,0,0,0,42.313,46.7a3.375,3.375,0,0,0,3-2.158q1.126-2.158,2.628-8.915Z" transform="translate(-9.341 63.287)"/>
    </g>
  </g>
</svg>
